<?xml version="1.0" encoding="UTF-8" standalone="no"?>
<svg width="825px" height="529px" viewBox="0 0 825 529" version="1.1" xmlns="http://www.w3.org/2000/svg" xmlns:xlink="http://www.w3.org/1999/xlink">
    <!-- Generator: Sketch 3.7.1 (28215) - http://www.bohemiancoding.com/sketch -->
    <title>Group 8</title>
    <desc>Created with Sketch.</desc>
    <defs></defs>
    <g id="Page-1" stroke="none" stroke-width="1" fill="none" fill-rule="evenodd">
        <g id="Group-8" transform="translate(-2.000000, -5.000000)">
            <rect id="Rectangle-1" fill="#D8D8D8" x="240" y="185" width="167" height="263" rx="4"></rect>
            <rect id="Rectangle-1-Copy" fill="#7A7979" x="251" y="389" width="145" height="48" rx="4"></rect>
            <rect id="Rectangle-1-Copy" fill="#7A7979" x="250" y="246" width="145" height="48" rx="4"></rect>
            <text id="Стек-вызовов" font-family="OpenSans, Open Sans" font-size="20" font-weight="normal" line-spacing="28" fill="#2A3546">
                <tspan x="240.547852" y="162">Стек вызовов</tspan>
            </text>
            <path d="M385.5,195.636364 L385.5,191 L379.25,197.181818 L385.5,203.363636 L385.5,198.727273 C390.65625,198.727273 394.875,202.9 394.875,208 C394.875,209.545455 394.40625,211.090909 393.78125,212.327273 L396.125,214.645455 C397.21875,212.636364 398,210.472727 398,208 C398,201.2 392.375,195.636364 385.5,195.636364 L385.5,195.636364 L385.5,195.636364 Z M385.5,217.272727 C380.34375,217.272727 376.125,213.1 376.125,208 C376.125,206.454545 376.59375,204.909091 377.21875,203.672727 L374.875,201.354545 C373.78125,203.363636 373,205.527273 373,208 C373,214.8 378.625,220.363636 385.5,220.363636 L385.5,225 L391.75,218.818182 L385.5,212.636364 L385.5,217.272727 L385.5,217.272727 L385.5,217.272727 Z" id="Shape" fill="#7A7979"></path>
            <path d="M224,426.5 L224,214" id="Line-Copy-2" stroke="#8CC53F" stroke-width="3" stroke-linecap="round" stroke-linejoin="bevel"></path>
            <path id="Line-Copy-2-decoration-1" d="M227,224.8 L224,214 L221,224.8" stroke="#8CC53F" stroke-width="3" stroke-linecap="round" stroke-linejoin="bevel"></path>
            <rect id="Rectangle-1-Copy-6" fill="#8CC53F" x="250" y="304" width="145" height="76" rx="4"></rect>
            <rect id="Rectangle-1-Copy-8" fill="#7A7979" x="260" y="338" width="131" height="36" rx="4"></rect>
            <text id="handler" font-family="OpenSans, Open Sans" font-size="20" font-weight="normal" fill="#FFFFFF">
                <tspan x="288.813477" y="363">handler</tspan>
            </text>
            <text id="setTimeout" font-family="OpenSans, Open Sans" font-size="14" font-weight="normal" fill="#FFFFFF">
                <tspan x="260.185059" y="324">setTimeout</tspan>
            </text>
            <rect id="Rectangle-1-Copy-5" fill="#D8D8D8" x="3" y="185" width="167" height="263" rx="4"></rect>
            <text id="Память" font-family="OpenSans, Open Sans" font-size="20" font-weight="normal" line-spacing="28" fill="#2A3546">
                <tspan x="0.662109375" y="162">Память</tspan>
            </text>
            <rect id="Rectangle-1-Copy-10" fill="#7A7979" x="37" y="245" width="20" height="20" rx="4"></rect>
            <rect id="Rectangle-1-Copy-12" fill="#8CC53F" x="104" y="271" width="20" height="20" rx="4"></rect>
            <rect id="Rectangle-1-Copy-11" fill="#7A7979" x="67" y="301" width="20" height="20" rx="4"></rect>
            <rect id="Rectangle-1-Copy-13" fill="#7A7979" x="57" y="366" width="20" height="20" rx="4"></rect>
            <rect id="Rectangle-1-Copy-3" fill="#D8D8D8" transform="translate(683.500000, 420.500000) rotate(-270.000000) translate(-683.500000, -420.500000) " x="600" y="277" width="167" height="287" rx="4"></rect>
            <rect id="Rectangle-1-Copy-9" fill="#7A7979" x="553" y="351" width="131" height="139" rx="4"></rect>
            <text id="handler" font-family="OpenSans, Open Sans" font-size="20" font-weight="normal" fill="#FFFFFF">
                <tspan x="582.313477" y="426">handler</tspan>
            </text>
            <text id="Очередь-обратных-выз" font-family="OpenSans, Open Sans" font-size="20" font-weight="normal" fill="#2A3546">
                <tspan x="549.141602" y="529">Очередь обратных вызовов</tspan>
            </text>
            <rect id="Rectangle-1-Copy-4" fill="#D8D8D8" x="650" y="43" width="167" height="216" rx="4"></rect>
            <text id="Web-Api" font-family="OpenSans, Open Sans" font-size="20" font-weight="normal" fill="#2A3546">
                <tspan x="651.121094" y="21">Web Api</tspan>
            </text>
            <rect id="Rectangle-1-Copy-6" fill="#8CC53F" x="661" y="124" width="145" height="76" rx="4"></rect>
            <rect id="Rectangle-1-Copy-8" fill="#7A7979" x="671" y="158" width="131" height="36" rx="4"></rect>
            <text id="handler" font-family="OpenSans, Open Sans" font-size="20" font-weight="normal" fill="#FFFFFF">
                <tspan x="699.813477" y="183">handler</tspan>
            </text>
            <text id="timer" font-family="OpenSans, Open Sans" font-size="20" font-weight="normal" fill="#FFFFFF">
                <tspan x="671.446289" y="146">timer</tspan>
            </text>
            <path d="M428.5,154.5 L636.5,154.5" id="Line" stroke="#979797" stroke-width="3" stroke-linecap="round" stroke-linejoin="bevel"></path>
            <path id="Line-decoration-1" d="M625.7,157.5 L636.5,154.5 L625.7,151.5" stroke="#979797" stroke-width="3" stroke-linecap="round" stroke-linejoin="bevel"></path>
            <path d="M676.5,210.5 L676.5,329.5" id="Line-Copy" stroke="#979797" stroke-width="3" stroke-linecap="round" stroke-linejoin="bevel"></path>
            <path id="Line-Copy-decoration-1" d="M673.5,318.7 L676.5,329.5 L679.5,318.7" stroke="#979797" stroke-width="3" stroke-linecap="round" stroke-linejoin="bevel"></path>
            <path d="M536.5,414.5 L410.5,414.5" id="Line-Copy-3" stroke="#979797" stroke-width="3" stroke-linecap="round" stroke-linejoin="bevel"></path>
            <path id="Line-Copy-3-decoration-1" d="M421.3,411.5 L410.5,414.5 L421.3,417.5" stroke="#979797" stroke-width="3" stroke-linecap="round" stroke-linejoin="bevel"></path>
            <path d="M428.5,358.5 L416.5,358.5" id="Line" stroke="#979797" stroke-width="3" stroke-linecap="square"></path>
            <path d="M428.5,154.5 L428.5,358.502457" id="Line" stroke="#979797" stroke-width="3" stroke-linecap="square"></path>
        </g>
    </g>
</svg>